<?xml version="1.0" encoding="UTF-8"?>
<svg width="30px" height="30px" viewBox="0 0 30 30" version="1.1" xmlns="http://www.w3.org/2000/svg" xmlns:xlink="http://www.w3.org/1999/xlink">
    <title>编组</title>
    <g id="页面-1" stroke="none" stroke-width="1" fill="none" fill-rule="evenodd">
        <g id="02_01_01组织管理_空" transform="translate(-1708.000000, -20.000000)">
            <g id="top" transform="translate(180.000000, 0.000000)">
                <g id="编组" transform="translate(1528.000000, 20.000000)">
                    <circle id="椭圆形" fill="#276EFA" opacity="0.12" cx="15" cy="15" r="15"></circle>
                    <path d="M17.3884958,18.1577927 L17.3877516,20.5007927 C20.7518716,20.7071307 23.8544921,22.8661493 25.5447268,25.6676738 C22.8358889,28.3461461 19.1110836,30 15,30 C10.8461562,30 7.08666805,28.3115631 4.37040503,25.5835588 C6.07883033,22.8162075 9.19000011,20.7016755 12.5457285,20.5009344 L12.5427516,20.5007927 L12.5429333,18.1577927 L17.3884958,18.1577927 Z" id="形状结合" fill="#FBC1BC"></path>
                    <path d="M17.6638277,20.5077977 C19.3829742,20.660483 21.0412033,21.2093126 22.5037998,22.1096994 L22.5037998,22.1096994 L22.4870283,22.1398981 C23.7661108,22.9406168 24.8511552,24.1819691 25.6225208,25.5896999 C22.9068816,28.3144587 19.1502804,30 15,30 C10.8059413,30 7.013911,28.278712 4.2918075,25.5040346 C5.06787451,24.1163144 6.15584894,22.8978415 7.43601504,22.1124448 C8.82660237,21.2577347 10.3944389,20.7197524 12.0244147,20.5379963 L12.0244147,20.5379963 L14.9685098,23.4349365 L16.8266373,22.4157715 L17.6540444,20.518779 Z" id="形状结合" fill="#9BBCFF"></path>
                    <path d="M12.5261618,17.9409114 L12.5471261,19.6594898 C13.153695,20.4254377 14.5457285,20.959405 16.1711653,20.959405 C16.5819918,20.9423284 16.9903841,20.8885728 17.3912911,20.798803 L17.3843029,17.6732414 L12.8042889,17.6732414 C12.7038316,17.7543522 12.6107698,17.843915 12.5261618,17.9409114 L12.5261618,17.9409114 Z M10.1376223,13.1901127 C9.69457547,13.2340381 9.25572152,13.49759 9.32839797,14.3953139 C9.32839797,14.3953139 9.26550489,15.6650304 10.4115566,16.0068243 C10.2067275,15.3193036 10.1031844,14.6065203 10.1040793,13.8901727 C10.1040793,13.6527014 10.1166579,13.419348 10.1376223,13.1901127 L10.1376223,13.1901127 Z M19.7826258,13.2024668 C19.8091807,13.4646461 19.8245545,13.7309433 19.8245545,14.0013586 C19.8257499,14.6783783 19.7364714,15.3526242 19.5590059,16.0068243 C20.6617313,15.6471857 20.6002358,14.4090406 20.6002358,14.4090406 C20.670117,13.5003354 20.2284679,13.2436467 19.7826258,13.2024668 L19.7826258,13.2024668 Z" id="形状" fill="#EAA7A0"></path>
                    <path d="M19.8427236,12.7783128 C19.5240653,9.3562553 17.261312,7.86142151 14.9160989,7.86142151 C12.5485238,7.86142151 10.365435,9.31919331 10.0803197,12.7796855 C10.0607529,13.0240201 10.0495564,13.2724727 10.0495564,13.5236707 C10.0481294,14.2824503 10.1467842,15.0382162 10.343073,15.7720984 C11.064247,18.4419346 13.0069445,20.3087611 15.0167278,20.3087611 C17.053066,20.3087611 18.95663,18.46527 19.6288871,15.7583717 C19.799744,15.0606996 19.8856008,14.3455617 19.8846601,13.6279934 C19.8832547,13.3397334 19.8678808,13.0569641 19.8427236,12.7783128 L19.8427236,12.7783128 Z" id="路径" fill="#FBC1BC"></path>
                    <path d="M14.6393693,6.00420379 C16.8434224,6.07420978 18.7288172,7.49217425 20.0901031,9.08858535 C20.5093903,9.57588196 20.8084818,10.1400479 20.6868885,10.7948098 C20.6868885,10.7948098 20.6811332,10.8256255 20.6112942,10.8535628 C20.6681759,11.2089879 20.6907353,11.5688857 20.6799004,11.9286323 C20.6674879,12.3234964 20.5356327,12.7057861 20.3011443,13.0267654 C20.1166579,13.2642367 19.9922694,13.4152301 19.9587264,13.7130987 C19.9335692,13.938216 19.8916405,14.1619606 19.8580975,14.3857052 L19.8580975,14.3857052 L19.7183351,15.3259818 C19.7700472,14.9841878 19.7295161,14.5970959 19.7295161,14.2511839 C19.7323113,13.8901727 19.7295161,13.5209254 19.7071541,13.1530508 C19.6694182,12.5161335 19.6973707,11.827055 19.5072938,11.2121004 L19.5072938,11.2121004 L19.3802601,10.7998197 C19.3709589,10.7981743 19.3615915,10.7965044 19.3521576,10.7948098 C19.2655049,10.7783378 19.1411163,10.6575431 19.0726328,10.6108724 C18.6044287,10.3157491 18.1096698,10.0329798 17.6177062,9.7776639 C17.242503,9.56345336 16.8147283,9.45426552 16.3808089,9.46195061 L16.3137229,9.46195061 C16.0459962,9.50723283 15.7833996,9.57803095 15.5296558,9.67334125 C14.5183564,9.98260274 13.439153,9.9944295 12.4243633,9.71059805 L12.4395091,9.73099324 C12.3933875,9.66647792 11.7043588,10.0055265 11.6484539,10.0398432 C11.1858403,10.2814325 10.7469864,10.6396985 10.5764762,11.1379764 C10.4646663,11.4674163 10.4856307,11.8435269 10.4492925,12.1853209 C10.3975804,12.6767355 10.2899633,13.1654048 10.2731918,13.658192 L10.2424441,15.3287271 C10.1641772,14.6794559 10.0915007,14.028812 10.0104385,13.3795407 C10.0104385,13.3795407 8.8825559,11.7858749 9.18444269,10.3061405 L9.18822554,10.2779013 C9.22340503,10.0389818 9.53394854,8.36058187 11.3339885,8.19360681 C11.3339885,8.19223415 11.3228075,5.89850848 14.6393693,6.00420379 Z" id="形状结合" fill="#276EFA"></path>
                    <path d="M12.2759871,20.5091703 C11.532409,20.5676662 10.7975603,20.7057516 10.0845126,20.9209703 L12.540138,25.2091803 L14.9657145,23.4315773 L12.2759871,20.5091703 Z M17.6610325,20.5009344 C18.4044948,20.5602688 19.1392517,20.698337 19.852507,20.9127343 L17.3968815,25.202317 L14.9657145,23.4315773 L17.6610325,20.5009344 Z" id="形状" fill="#FFFFFF" fill-rule="nonzero"></path>
                </g>
            </g>
        </g>
    </g>
</svg>